<svg width="386" height="120" viewBox="0 0 386 120" fill="none" xmlns="http://www.w3.org/2000/svg" role="img" aria-label="JukeNFC">
  <defs>
    <linearGradient id="JNFC_Cd" x1="20" y1="16" x2="96" y2="104" gradientUnits="userSpaceOnUse">
      <stop stop-color="#8b6bf8"></stop>
      <stop offset="1" stop-color="#6c4cf1"></stop>
    </linearGradient>
  </defs>
  <rect x="20" y="20" width="68" height="84" rx="18" transform="rotate(-7 54 62)" fill="url(#JNFC_Cd)"></rect>
  <rect x="20" y="20" width="68" height="84" rx="18" transform="rotate(-7 54 62)" fill="#000" opacity="0.06" style="mix-blend-mode:multiply"></rect>
  <path d="M44 47l21 14-21 14z" transform="rotate(-7 54 62)" fill="#fff"></path>
  <g stroke="#ffc23d" stroke-width="6" stroke-linecap="round" fill="none">
    <path d="M92 44a18 18 0 0 1 0 34"></path>
    <path d="M101 34a32 32 0 0 1 0 54"></path>
  </g>
  <g transform="translate(132 22)">
    <path d="M13.69 58.99L13.69 58.99Q11.54 58.99 9.69 58.38Q7.83 57.77 6.47 56.96Q5.10 56.14 4.29 55.42Q3.48 54.69 3.25 54.46L3.25 54.46Q2.49 53.71 1.94 52.98Q1.39 52.26 1.39 51.33L1.39 51.33Q1.39 50.58 1.83 49.73Q2.26 48.89 3.07 48.02L3.07 48.02Q3.94 47.15 4.73 46.72Q5.51 46.28 6.26 46.28L6.26 46.28Q7.31 46.28 8.09 46.92Q8.87 47.56 9.74 48.43L9.74 48.43Q10.09 48.66 10.67 49.07Q11.25 49.47 12.06 49.79Q12.88 50.11 13.98 50.11L13.98 50.11Q15.25 50.11 16.24 49.68Q17.23 49.24 17.89 48.40Q18.56 47.56 18.91 46.43Q19.26 45.30 19.26 43.96L19.26 43.96L19.26 22.85Q19.26 21.63 19.49 20.50Q19.72 19.37 20.68 18.68Q21.63 17.98 23.78 17.98L23.78 17.98Q25.87 17.98 26.74 18.62Q27.61 19.26 27.84 20.30Q28.07 21.34 28.07 22.45L28.07 22.45L28.07 44.37Q28.07 47.44 27.03 50.11Q25.98 52.78 24.04 54.75Q22.10 56.72 19.46 57.85Q16.82 58.99 13.69 58.99ZM45.94 58.46L45.94 58.46Q43.27 58.46 40.92 57.42Q38.57 56.38 36.83 54.49Q35.09 52.61 34.13 50.02Q33.18 47.44 33.18 44.37L33.18 44.37L33.18 33.87Q33.18 32.71 33.41 31.73Q33.64 30.74 34.54 30.10Q35.44 29.46 37.58 29.46L37.58 29.46Q39.73 29.46 40.63 30.10Q41.53 30.74 41.73 31.75Q41.93 32.77 41.93 33.93L41.93 33.93L41.93 44.37Q41.93 46.05 42.54 47.30Q43.15 48.55 44.34 49.18Q45.53 49.82 47.15 49.82L47.15 49.82Q48.84 49.82 50.03 49.16Q51.21 48.49 51.88 47.27Q52.55 46.05 52.55 44.37L52.55 44.37L52.55 33.81Q52.55 32.65 52.78 31.67Q53.01 30.68 53.91 30.07Q54.81 29.46 56.96 29.46L56.96 29.46Q59.10 29.46 60.00 30.10Q60.90 30.74 61.10 31.75Q61.31 32.77 61.31 33.87L61.31 33.87L61.31 54.29Q61.31 55.39 61.10 56.35Q60.90 57.30 59.97 57.88Q59.04 58.46 56.96 58.46L56.96 58.46Q55.39 58.46 54.52 58.12Q53.65 57.77 53.24 57.25Q52.84 56.72 52.75 56.14Q52.66 55.56 52.66 55.10L52.66 55.10L53.42 54.46Q53.24 54.69 52.66 55.33Q52.08 55.97 51.13 56.70Q50.17 57.42 48.89 57.94Q47.62 58.46 45.94 58.46ZM81.32 43.91L89.90 50.63Q91.70 52.20 91.81 53.62Q91.93 55.04 90.25 56.90L90.25 56.90Q88.97 58.23 88.02 58.64Q87.06 59.04 86.13 58.67Q85.20 58.29 83.98 57.19L83.98 57.19L74.82 49.18L74.82 54.17Q74.82 55.33 74.62 56.32Q74.41 57.30 73.52 57.91Q72.62 58.52 70.47 58.52L70.47 58.52Q68.38 58.52 67.45 57.91Q66.53 57.30 66.32 56.29Q66.12 55.27 66.12 54.11L66.12 54.11L66.12 20.65Q66.12 19.49 66.35 18.50Q66.58 17.52 67.51 16.91Q68.44 16.30 70.53 16.30L70.53 16.30Q72.62 16.30 73.52 16.91Q74.41 17.52 74.62 18.53Q74.82 19.55 74.82 20.71L74.82 20.71L74.82 38.22L81.32 31.96Q82.48 30.86 83.49 30.45Q84.51 30.04 85.49 30.39Q86.48 30.74 87.58 31.96L87.58 31.96Q89.44 33.99 89.38 35.23Q89.32 36.48 87.58 38.22L87.58 38.22L81.32 43.91ZM109.56 59.04L109.56 59.04Q105.50 59.04 102.57 57.71Q99.64 56.38 97.79 54.20Q95.93 52.03 95.03 49.36Q94.13 46.69 94.13 44.02L94.13 44.02Q94.13 39.67 96.11 36.31Q98.08 32.94 101.56 31.00Q105.04 29.06 109.56 29.06L109.56 29.06Q112.93 29.06 115.39 30.13Q117.86 31.20 119.45 32.91Q121.05 34.63 121.83 36.60Q122.61 38.57 122.61 40.37L122.61 40.37Q122.61 43.56 121.08 45.09Q119.54 46.63 117.16 46.63L117.16 46.63L103.36 46.63Q103.47 48.14 104.43 49.18Q105.39 50.23 106.84 50.81Q108.29 51.39 109.91 51.39L109.91 51.39Q111.30 51.39 112.35 51.24Q113.39 51.10 114.14 50.84Q114.90 50.58 115.54 50.31Q116.17 50.05 116.67 49.88Q117.16 49.71 117.62 49.65L117.62 49.65Q118.49 49.59 119.22 50.14Q119.94 50.69 120.52 51.79L120.52 51.79Q120.93 52.43 121.08 53.01Q121.22 53.59 121.22 54.17L121.22 54.17Q121.22 55.56 119.80 56.67Q118.38 57.77 115.80 58.41Q113.22 59.04 109.56 59.04ZM103.36 41.88L103.36 41.88L112.52 41.88Q113.45 41.88 113.88 41.56Q114.32 41.24 114.32 40.31L114.32 40.31Q114.32 39.27 113.68 38.48Q113.04 37.70 111.97 37.27Q110.90 36.83 109.50 36.83L109.50 36.83Q107.71 36.83 106.31 37.53Q104.92 38.22 104.14 39.38Q103.36 40.54 103.36 41.88Z" fill="#ffffff"></path>
    <path d="M130.62 58.52L130.62 58.52Q128.59 58.52 127.66 57.88Q126.73 57.25 126.50 56.23Q126.27 55.22 126.27 54.06L126.27 54.06L126.27 22.21Q126.27 21.11 126.50 20.18Q126.73 19.26 127.69 18.65Q128.64 18.04 130.79 18.04L130.79 18.04Q132.88 18.04 133.69 18.53Q134.50 19.02 135.14 19.89L135.14 19.89L152.08 43.15L152.08 22.21Q152.08 21.11 152.34 20.18Q152.60 19.26 153.53 18.65Q154.45 18.04 156.54 18.04L156.54 18.04Q158.69 18.04 159.59 18.68Q160.49 19.31 160.69 20.33Q160.89 21.34 160.89 22.45L160.89 22.45L160.89 54.11Q160.89 55.22 160.66 56.23Q160.43 57.25 159.50 57.88Q158.57 58.52 156.43 58.52L156.43 58.52Q154.80 58.52 153.90 58.23Q153.00 57.94 152.37 57.13L152.37 57.13L135.08 33.70L135.08 54.11Q135.08 55.22 134.85 56.23Q134.62 57.25 133.69 57.88Q132.76 58.52 130.62 58.52ZM170.87 58.52L170.87 58.52Q168.78 58.52 167.85 57.91Q166.92 57.30 166.72 56.26Q166.52 55.22 166.52 54.11L166.52 54.11L166.52 22.39Q166.52 19.84 167.50 18.91Q168.49 17.98 171.04 17.98L171.04 17.98L192.97 17.98Q194.13 17.98 195.11 18.18Q196.10 18.39 196.71 19.31Q197.32 20.24 197.32 22.45L197.32 22.45Q197.32 24.53 196.68 25.46Q196.04 26.39 195.03 26.59Q194.01 26.80 192.85 26.80L192.85 26.80L175.33 26.80L175.33 34.28L187.22 34.28Q188.38 34.28 189.28 34.45Q190.18 34.63 190.70 35.44Q191.23 36.25 191.23 38.16L191.23 38.16Q191.23 40.02 190.70 40.80Q190.18 41.59 189.28 41.76Q188.38 41.93 187.17 41.93L187.17 41.93L175.33 41.93L175.33 54.17Q175.33 55.27 175.10 56.29Q174.87 57.30 173.97 57.91Q173.07 58.52 170.87 58.52ZM221.73 58.99L221.73 58.99Q219.18 58.99 216.34 58.17Q213.50 57.36 210.77 55.74Q208.05 54.11 205.81 51.59Q203.58 49.07 202.27 45.67Q200.97 42.28 200.97 37.93L200.97 37.93Q200.97 33.76 202.27 30.48Q203.58 27.20 205.78 24.77Q207.99 22.33 210.71 20.73Q213.44 19.14 216.34 18.36Q219.24 17.57 221.85 17.57L221.85 17.57Q224.81 17.57 227.01 18.27Q229.22 18.97 230.61 19.69Q232 20.42 232.35 20.71L232.35 20.71Q233.39 21.34 234.32 22.16Q235.25 22.97 235.31 24.30L235.31 24.30Q235.31 25.00 235.04 25.66Q234.78 26.33 234.26 27.09L234.26 27.09Q233.33 28.42 232.49 29.03Q231.65 29.64 230.78 29.64L230.78 29.64Q230.09 29.64 229.48 29.29Q228.87 28.94 227.94 28.36L227.94 28.36Q227.53 28.07 226.78 27.64Q226.03 27.20 224.75 26.82Q223.47 26.45 221.50 26.45L221.50 26.45Q219.47 26.45 217.41 27.17Q215.35 27.90 213.61 29.35Q211.87 30.80 210.83 33.03Q209.79 35.26 209.79 38.22L209.79 38.22Q209.79 41.30 210.86 43.50Q211.93 45.70 213.67 47.15Q215.41 48.60 217.47 49.33Q219.53 50.05 221.50 50.05L221.50 50.05Q223.24 50.05 224.49 49.71Q225.74 49.36 226.63 48.87Q227.53 48.37 228.17 47.97L228.17 47.97Q228.81 47.56 229.48 47.21Q230.14 46.86 230.84 46.86L230.84 46.86Q231.65 46.86 232.49 47.50Q233.33 48.14 234.20 49.53L234.20 49.53Q234.73 50.29 235.02 51.01Q235.31 51.74 235.25 52.43L235.25 52.43Q235.25 53.65 234.32 54.43Q233.39 55.22 232.35 55.85L232.35 55.85Q231.88 56.09 230.55 56.87Q229.22 57.65 227.01 58.32Q224.81 58.99 221.73 58.99Z" fill="#b6a3fb"></path>
  </g>
</svg>